# Created by Kenney (www.kenney.nl)

mtllib Arrow.mtl

v 6 6 0.5
v 6 6 -0.5
v 5 6 0.5
v 5 6 -0.5
v 6 7 0.5
v 6 7 -0.5
v 6 -4 -0.5
v 6 -5 -0.5
v 6 -4 0.5
v 6 -5 0.5
v 5 -4 0.5
v 5 -4 -0.5
v 4 5 0.5
v 4 5 -0.5
v 3 5 0.5
v 3 5 -0.5
v 4 6 0.5
v 4 6 -0.5
v 4 -3 -0.5
v 4 -4 -0.5
v 4 -3 0.5
v 4 -4 0.5
v 3 -3 0.5
v 3 -3 -0.5
v 2 4 0.5
v 2 4 -0.5
v 1 4 0.5
v 1 4 -0.5
v 2 5 0.5
v 2 5 -0.5
v 2 -2 -0.5
v 2 -3 -0.5
v 2 -2 0.5
v 2 -3 0.5
v 1 -2 0.5
v 1 -2 -0.5
v 0 3 0.5
v 0 3 -0.5
v -1 3 0.5
v -1 3 -0.5
v 0 4 0.5
v 0 4 -0.5
v 0 -1 -0.5
v 0 -2 -0.5
v 0 -1 0.5
v 0 -2 0.5
v -1 -1 0.5
v -1 -1 -0.5
v -2 2 0.5
v -2 2 -0.5
v -3 2 0.5
v -3 2 -0.5
v -2 3 0.5
v -2 3 -0.5
v -2 0 -0.5
v -2 -1 -0.5
v -2 0 0.5
v -2 -1 0.5
v -3 0 0.5
v -3 0 -0.5
v -3 1 0.5
v -3 1 -0.5
v -4 1 0.5
v -4 1 -0.5
v 8 -5 0.5
v 8 -5 -0.5
v 7 -5 0.5
v 7 -5 -0.5
v 7 7 -0.5
v 7 7 0.5
v 8 7 -0.5
v 8 7 0.5
v 7 6 0.5
v 7 6 -0.5
v 6 5 0.5
v 6 5 -0.5
v 4 4 0.5
v 4 4 -0.5
v 2 3 0.5
v 2 3 -0.5
v 0 2 0.5
v 0 2 -0.5
v 0 0 -0.5
v 0 0 0.5
v 2 -1 -0.5
v 2 -1 0.5
v 4 -2 -0.5
v 4 -2 0.5
v 6 -3 -0.5
v 6 -3 0.5
v 7 -4 -0.5
v 7 -4 0.5
v 7 -4 1.5
v 7 -4 -1.5
v 6 -4 1.5
v 6 -4 -1.5
v 6 6 -1.5
v 6 6 1.5
v 7 6 -1.5
v 7 6 1.5
v 6 -3 1.5
v 6 -3 -1.5
v 4 -3 1.5
v 4 -3 -1.5
v 4 5 -1.5
v 4 5 1.5
v 6 5 -1.5
v 6 5 1.5
v 4 -2 1.5
v 4 -2 -1.5
v 2 -2 1.5
v 2 -2 -1.5
v 2 4 -1.5
v 2 4 1.5
v 4 4 -1.5
v 4 4 1.5
v 2 -1 1.5
v 2 -1 -1.5
v 0 -1 1.5
v 0 -1 -1.5
v 0 3 -1.5
v 0 3 1.5
v 2 3 -1.5
v 2 3 1.5
v 0 0 1.5
v 0 0 -1.5
v -2 0 1.5
v -2 0 -1.5
v -2 2 -1.5
v -2 2 1.5
v 0 2 -1.5
v 0 2 1.5

vn 0 -1 0
vn 0 0 1
vn 0 0 -1
vn 1 0 0
vn -0.7071068 0.7071068 0
vn -0.7071068 -0.7071068 0
vn 0 1 0
vn -1 0 0

vt 0 0

usemtl color14

f 3/1/1 2/1/1 1/1/1
f 2/1/1 3/1/1 4/1/1
f 5/1/2 3/1/2 1/1/2
f 6/1/3 2/1/3 4/1/3
f 5/1/4 2/1/4 6/1/4
f 2/1/4 5/1/4 1/1/4
f 3/1/5 6/1/5 4/1/5
f 6/1/5 3/1/5 5/1/5
f 9/1/4 8/1/4 7/1/4
f 8/1/4 9/1/4 10/1/4
f 11/1/2 10/1/2 9/1/2
f 10/1/6 12/1/6 8/1/6
f 12/1/6 10/1/6 11/1/6
f 12/1/3 7/1/3 8/1/3
f 12/1/7 9/1/7 7/1/7
f 9/1/7 12/1/7 11/1/7
f 15/1/1 14/1/1 13/1/1
f 14/1/1 15/1/1 16/1/1
f 17/1/2 15/1/2 13/1/2
f 18/1/3 14/1/3 16/1/3
f 17/1/4 14/1/4 18/1/4
f 14/1/4 17/1/4 13/1/4
f 15/1/5 18/1/5 16/1/5
f 18/1/5 15/1/5 17/1/5
f 21/1/4 20/1/4 19/1/4
f 20/1/4 21/1/4 22/1/4
f 23/1/2 22/1/2 21/1/2
f 22/1/6 24/1/6 20/1/6
f 24/1/6 22/1/6 23/1/6
f 24/1/3 19/1/3 20/1/3
f 24/1/7 21/1/7 19/1/7
f 21/1/7 24/1/7 23/1/7
f 27/1/1 26/1/1 25/1/1
f 26/1/1 27/1/1 28/1/1
f 29/1/2 27/1/2 25/1/2
f 30/1/3 26/1/3 28/1/3
f 29/1/4 26/1/4 30/1/4
f 26/1/4 29/1/4 25/1/4
f 27/1/5 30/1/5 28/1/5
f 30/1/5 27/1/5 29/1/5
f 33/1/4 32/1/4 31/1/4
f 32/1/4 33/1/4 34/1/4
f 35/1/2 34/1/2 33/1/2
f 34/1/6 36/1/6 32/1/6
f 36/1/6 34/1/6 35/1/6
f 36/1/3 31/1/3 32/1/3
f 36/1/7 33/1/7 31/1/7
f 33/1/7 36/1/7 35/1/7
f 39/1/1 38/1/1 37/1/1
f 38/1/1 39/1/1 40/1/1
f 41/1/2 39/1/2 37/1/2
f 42/1/3 38/1/3 40/1/3
f 41/1/4 38/1/4 42/1/4
f 38/1/4 41/1/4 37/1/4
f 39/1/5 42/1/5 40/1/5
f 42/1/5 39/1/5 41/1/5
f 45/1/4 44/1/4 43/1/4
f 44/1/4 45/1/4 46/1/4
f 47/1/2 46/1/2 45/1/2
f 46/1/6 48/1/6 44/1/6
f 48/1/6 46/1/6 47/1/6
f 48/1/3 43/1/3 44/1/3
f 48/1/7 45/1/7 43/1/7
f 45/1/7 48/1/7 47/1/7
f 51/1/1 50/1/1 49/1/1
f 50/1/1 51/1/1 52/1/1
f 53/1/2 51/1/2 49/1/2
f 54/1/3 50/1/3 52/1/3
f 53/1/4 50/1/4 54/1/4
f 50/1/4 53/1/4 49/1/4
f 51/1/5 54/1/5 52/1/5
f 54/1/5 51/1/5 53/1/5
f 57/1/4 56/1/4 55/1/4
f 56/1/4 57/1/4 58/1/4
f 59/1/2 58/1/2 57/1/2
f 58/1/6 60/1/6 56/1/6
f 60/1/6 58/1/6 59/1/6
f 60/1/3 55/1/3 56/1/3
f 60/1/7 57/1/7 55/1/7
f 57/1/7 60/1/7 59/1/7
f 63/1/1 62/1/1 61/1/1
f 62/1/1 63/1/1 64/1/1
f 51/1/2 63/1/2 61/1/2
f 52/1/3 62/1/3 64/1/3
f 51/1/4 62/1/4 52/1/4
f 62/1/4 51/1/4 61/1/4
f 63/1/5 52/1/5 64/1/5
f 52/1/5 63/1/5 51/1/5
f 61/1/4 60/1/4 62/1/4
f 60/1/4 61/1/4 59/1/4
f 63/1/2 59/1/2 61/1/2
f 59/1/6 64/1/6 60/1/6
f 64/1/6 59/1/6 63/1/6
f 64/1/3 62/1/3 60/1/3
f 64/1/7 61/1/7 62/1/7
f 61/1/7 64/1/7 63/1/7
f 67/1/1 66/1/1 65/1/1
f 66/1/1 67/1/1 68/1/1
f 67/1/8 69/1/8 68/1/8
f 69/1/8 67/1/8 70/1/8
f 69/1/3 66/1/3 68/1/3
f 66/1/3 69/1/3 71/1/3
f 72/1/2 67/1/2 65/1/2
f 67/1/2 72/1/2 70/1/2
f 72/1/4 66/1/4 71/1/4
f 66/1/4 72/1/4 65/1/4
f 69/1/7 72/1/7 71/1/7
f 72/1/7 69/1/7 70/1/7
f 1/1/1 74/1/1 73/1/1
f 74/1/1 1/1/1 2/1/1
f 1/1/8 6/1/8 2/1/8
f 6/1/8 1/1/8 5/1/8
f 6/1/3 74/1/3 2/1/3
f 74/1/3 6/1/3 69/1/3
f 70/1/2 1/1/2 73/1/2
f 1/1/2 70/1/2 5/1/2
f 70/1/4 74/1/4 69/1/4
f 74/1/4 70/1/4 73/1/4
f 6/1/7 70/1/7 69/1/7
f 70/1/7 6/1/7 5/1/7
f 13/1/1 76/1/1 75/1/1
f 76/1/1 13/1/1 14/1/1
f 13/1/8 18/1/8 14/1/8
f 18/1/8 13/1/8 17/1/8
f 18/1/3 76/1/3 14/1/3
f 76/1/3 18/1/3 2/1/3
f 1/1/2 13/1/2 75/1/2
f 13/1/2 1/1/2 17/1/2
f 1/1/4 76/1/4 2/1/4
f 76/1/4 1/1/4 75/1/4
f 18/1/7 1/1/7 2/1/7
f 1/1/7 18/1/7 17/1/7
f 25/1/1 78/1/1 77/1/1
f 78/1/1 25/1/1 26/1/1
f 25/1/8 30/1/8 26/1/8
f 30/1/8 25/1/8 29/1/8
f 30/1/3 78/1/3 26/1/3
f 78/1/3 30/1/3 14/1/3
f 13/1/2 25/1/2 77/1/2
f 25/1/2 13/1/2 29/1/2
f 13/1/4 78/1/4 14/1/4
f 78/1/4 13/1/4 77/1/4
f 30/1/7 13/1/7 14/1/7
f 13/1/7 30/1/7 29/1/7
f 37/1/1 80/1/1 79/1/1
f 80/1/1 37/1/1 38/1/1
f 37/1/8 42/1/8 38/1/8
f 42/1/8 37/1/8 41/1/8
f 42/1/3 80/1/3 38/1/3
f 80/1/3 42/1/3 26/1/3
f 25/1/2 37/1/2 79/1/2
f 37/1/2 25/1/2 41/1/2
f 25/1/4 80/1/4 26/1/4
f 80/1/4 25/1/4 79/1/4
f 42/1/7 25/1/7 26/1/7
f 25/1/7 42/1/7 41/1/7
f 49/1/1 82/1/1 81/1/1
f 82/1/1 49/1/1 50/1/1
f 49/1/8 54/1/8 50/1/8
f 54/1/8 49/1/8 53/1/8
f 54/1/3 82/1/3 50/1/3
f 82/1/3 54/1/3 38/1/3
f 37/1/2 49/1/2 81/1/2
f 49/1/2 37/1/2 53/1/2
f 37/1/4 82/1/4 38/1/4
f 82/1/4 37/1/4 81/1/4
f 54/1/7 37/1/7 38/1/7
f 37/1/7 54/1/7 53/1/7
f 59/1/1 55/1/1 57/1/1
f 55/1/1 59/1/1 60/1/1
f 59/1/8 52/1/8 60/1/8
f 52/1/8 59/1/8 51/1/8
f 52/1/3 55/1/3 60/1/3
f 55/1/3 52/1/3 50/1/3
f 49/1/2 59/1/2 57/1/2
f 59/1/2 49/1/2 51/1/2
f 49/1/4 55/1/4 50/1/4
f 55/1/4 49/1/4 57/1/4
f 52/1/7 49/1/7 50/1/7
f 49/1/7 52/1/7 51/1/7
f 58/1/1 43/1/1 45/1/1
f 43/1/1 58/1/1 56/1/1
f 58/1/8 55/1/8 56/1/8
f 55/1/8 58/1/8 57/1/8
f 55/1/3 43/1/3 56/1/3
f 43/1/3 55/1/3 83/1/3
f 84/1/2 58/1/2 45/1/2
f 58/1/2 84/1/2 57/1/2
f 84/1/4 43/1/4 83/1/4
f 43/1/4 84/1/4 45/1/4
f 55/1/7 84/1/7 83/1/7
f 84/1/7 55/1/7 57/1/7
f 46/1/1 31/1/1 33/1/1
f 31/1/1 46/1/1 44/1/1
f 46/1/8 43/1/8 44/1/8
f 43/1/8 46/1/8 45/1/8
f 43/1/3 31/1/3 44/1/3
f 31/1/3 43/1/3 85/1/3
f 86/1/2 46/1/2 33/1/2
f 46/1/2 86/1/2 45/1/2
f 86/1/4 31/1/4 85/1/4
f 31/1/4 86/1/4 33/1/4
f 43/1/7 86/1/7 85/1/7
f 86/1/7 43/1/7 45/1/7
f 34/1/1 19/1/1 21/1/1
f 19/1/1 34/1/1 32/1/1
f 34/1/8 31/1/8 32/1/8
f 31/1/8 34/1/8 33/1/8
f 31/1/3 19/1/3 32/1/3
f 19/1/3 31/1/3 87/1/3
f 88/1/2 34/1/2 21/1/2
f 34/1/2 88/1/2 33/1/2
f 88/1/4 19/1/4 87/1/4
f 19/1/4 88/1/4 21/1/4
f 31/1/7 88/1/7 87/1/7
f 88/1/7 31/1/7 33/1/7
f 22/1/1 7/1/1 9/1/1
f 7/1/1 22/1/1 20/1/1
f 22/1/8 19/1/8 20/1/8
f 19/1/8 22/1/8 21/1/8
f 19/1/3 7/1/3 20/1/3
f 7/1/3 19/1/3 89/1/3
f 90/1/2 22/1/2 9/1/2
f 22/1/2 90/1/2 21/1/2
f 90/1/4 7/1/4 89/1/4
f 7/1/4 90/1/4 9/1/4
f 19/1/7 90/1/7 89/1/7
f 90/1/7 19/1/7 21/1/7
f 10/1/1 68/1/1 67/1/1
f 68/1/1 10/1/1 8/1/1
f 10/1/8 7/1/8 8/1/8
f 7/1/8 10/1/8 9/1/8
f 7/1/3 68/1/3 8/1/3
f 68/1/3 7/1/3 91/1/3
f 92/1/2 10/1/2 67/1/2
f 10/1/2 92/1/2 9/1/2
f 92/1/4 68/1/4 91/1/4
f 68/1/4 92/1/4 67/1/4
f 7/1/7 92/1/7 91/1/7
f 92/1/7 7/1/7 9/1/7
f 1/1/1 74/1/1 73/1/1
f 74/1/1 1/1/1 2/1/1
f 1/1/8 6/1/8 2/1/8
f 6/1/8 1/1/8 5/1/8
f 6/1/3 74/1/3 2/1/3
f 74/1/3 6/1/3 69/1/3
f 70/1/2 1/1/2 73/1/2
f 1/1/2 70/1/2 5/1/2
f 70/1/4 74/1/4 69/1/4
f 74/1/4 70/1/4 73/1/4
f 6/1/7 70/1/7 69/1/7
f 70/1/7 6/1/7 5/1/7

usemtl color15

f 95/1/1 94/1/1 93/1/1
f 94/1/1 95/1/1 96/1/1
f 95/1/8 97/1/8 96/1/8
f 97/1/8 95/1/8 98/1/8
f 97/1/3 94/1/3 96/1/3
f 94/1/3 97/1/3 99/1/3
f 100/1/2 95/1/2 93/1/2
f 95/1/2 100/1/2 98/1/2
f 100/1/4 94/1/4 99/1/4
f 94/1/4 100/1/4 93/1/4
f 97/1/7 100/1/7 99/1/7
f 100/1/7 97/1/7 98/1/7
f 103/1/1 102/1/1 101/1/1
f 102/1/1 103/1/1 104/1/1
f 103/1/8 105/1/8 104/1/8
f 105/1/8 103/1/8 106/1/8
f 105/1/3 102/1/3 104/1/3
f 102/1/3 105/1/3 107/1/3
f 108/1/2 103/1/2 101/1/2
f 103/1/2 108/1/2 106/1/2
f 108/1/4 102/1/4 107/1/4
f 102/1/4 108/1/4 101/1/4
f 105/1/7 108/1/7 107/1/7
f 108/1/7 105/1/7 106/1/7
f 111/1/1 110/1/1 109/1/1
f 110/1/1 111/1/1 112/1/1
f 111/1/8 113/1/8 112/1/8
f 113/1/8 111/1/8 114/1/8
f 113/1/3 110/1/3 112/1/3
f 110/1/3 113/1/3 115/1/3
f 116/1/2 111/1/2 109/1/2
f 111/1/2 116/1/2 114/1/2
f 116/1/4 110/1/4 115/1/4
f 110/1/4 116/1/4 109/1/4
f 113/1/7 116/1/7 115/1/7
f 116/1/7 113/1/7 114/1/7
f 119/1/1 118/1/1 117/1/1
f 118/1/1 119/1/1 120/1/1
f 119/1/8 121/1/8 120/1/8
f 121/1/8 119/1/8 122/1/8
f 121/1/3 118/1/3 120/1/3
f 118/1/3 121/1/3 123/1/3
f 124/1/2 119/1/2 117/1/2
f 119/1/2 124/1/2 122/1/2
f 124/1/4 118/1/4 123/1/4
f 118/1/4 124/1/4 117/1/4
f 121/1/7 124/1/7 123/1/7
f 124/1/7 121/1/7 122/1/7
f 127/1/1 126/1/1 125/1/1
f 126/1/1 127/1/1 128/1/1
f 127/1/8 129/1/8 128/1/8
f 129/1/8 127/1/8 130/1/8
f 129/1/3 126/1/3 128/1/3
f 126/1/3 129/1/3 131/1/3
f 132/1/2 127/1/2 125/1/2
f 127/1/2 132/1/2 130/1/2
f 132/1/4 126/1/4 131/1/4
f 126/1/4 132/1/4 125/1/4
f 129/1/7 132/1/7 131/1/7
f 132/1/7 129/1/7 130/1/7

