# Created by Kenney (www.kenney.nl)

mtllib EnemyBullet.mtl

v 3 0 0.5
v 3 0 -0.5
v -3 0 0.5
v -3 0 -0.5
v -3 2 -0.5
v -3 2 0.5
v 3 2 -0.5
v 3 2 0.5
v 3 1 0.5
v 3 1 -0.5
v 2 1 0.5
v 2 1 -0.5
v 2 2 -0.5
v 2 2 0.5

vn 0 -1 0
vn -1 0 0
vn 0 0 -1
vn 0 0 1
vn 1 0 0
vn 0 1 0

vt 0 0

usemtl color8

f 3/1/1 2/1/1 1/1/1
f 2/1/1 3/1/1 4/1/1
f 3/1/2 5/1/2 4/1/2
f 5/1/2 3/1/2 6/1/2
f 5/1/3 2/1/3 4/1/3
f 2/1/3 5/1/3 7/1/3
f 8/1/4 3/1/4 1/1/4
f 3/1/4 8/1/4 6/1/4
f 8/1/5 2/1/5 7/1/5
f 2/1/5 8/1/5 1/1/5
f 5/1/6 8/1/6 7/1/6
f 8/1/6 5/1/6 6/1/6
f 11/1/1 10/1/1 9/1/1
f 10/1/1 11/1/1 12/1/1
f 11/1/2 13/1/2 12/1/2
f 13/1/2 11/1/2 14/1/2
f 13/1/3 10/1/3 12/1/3
f 10/1/3 13/1/3 7/1/3
f 8/1/4 11/1/4 9/1/4
f 11/1/4 8/1/4 14/1/4
f 8/1/5 10/1/5 7/1/5
f 10/1/5 8/1/5 9/1/5
f 13/1/6 8/1/6 7/1/6
f 8/1/6 13/1/6 14/1/6

