# Created by Kenney (www.kenney.nl)

mtllib Enemy3.mtl

v 6 4 -1.5
v 6 5 -1.5
v 6 4 1.5
v 6 5 1.5
v 7 4 -1.5
v 7 4 1.5
v 7 -2 1.5
v 6 -3 1.5
v 6 -2 1.5
v 7 -2 -1.5
v 6 -3 -1.5
v 6 -2 -1.5
v 3 4 1.5
v 3 4 -1.5
v 2 4 1.5
v 2 4 -1.5
v 3 5 1.5
v 3 5 -1.5
v 3 -2 -1.5
v 3 -3 -1.5
v 3 -2 1.5
v 3 -3 1.5
v 2 -2 1.5
v 2 -2 -1.5
v -3 4 -1.5
v -3 5 -1.5
v -3 4 1.5
v -3 5 1.5
v -2 4 -1.5
v -2 4 1.5
v -2 -2 1.5
v -3 -3 1.5
v -3 -2 1.5
v -2 -2 -1.5
v -3 -3 -1.5
v -3 -2 -1.5
v -6 4 1.5
v -6 4 -1.5
v -7 4 1.5
v -7 4 -1.5
v -6 5 1.5
v -6 5 -1.5
v -6 -2 -1.5
v -6 -3 -1.5
v -6 -2 1.5
v -6 -3 1.5
v -7 -2 1.5
v -7 -2 -1.5
v 2 2 1.5
v 2 2 -1.5
v -2 2 1.5
v -2 2 -1.5
v -2 3 -1.5
v -2 3 1.5
v 2 3 -1.5
v 2 3 1.5
v 2 -1 1.5
v 2 -1 -1.5
v -2 -1 1.5
v -2 -1 -1.5
v -2 0 -1.5
v -2 0 1.5
v 2 0 -1.5
v 2 0 1.5
v 2 2 -1
v 2 1.5 -1
v 2 2 1
v 2 1.5 1
v 1 2 -1
v 1 2 1
v 1 1.5 1
v 1 1.5 -1
v 2 0 1
v 2 0 -1
v 1 0 1
v 1 0 -1
v 2 0.5 -1
v 2 0.5 1
v 1 0.5 -1
v 1 0.5 1
v 0 7 -1.5
v 0 8 -1.5
v 0 7 1.5
v 0 8 1.5
v 1 7 -1.5
v 1 7 1.5
v 0 2 -1
v 0 2 1
v 0 1.5 1
v 0 1.5 -1
v 5.960464E-08 0 1
v 5.960464E-08 0 -1
v 0 0.5 -1
v 0 0.5 1
v -1 7 1.5
v -1 7 -1.5
v -1 2 -1
v -1 2 1
v -1 1.5 1
v -1 1.5 -1
v -0.9999999 0 1
v -0.9999999 0 -1
v -1 0.5 -1
v -1 0.5 1
v 0 0 -1
v 0 0 1
v -2 2 -1
v -2 2 1
v -2 1.5 1
v -2 1.5 -1
v -2 0 1
v -2 0 -1
v -2 0.5 -1
v -2 0.5 1
v -1 0 -1
v -1 0 1
v 1 3 1.5
v 1 3 -1.5
v -1 3 1.5
v -1 3 -1.5
v 6 -2 1
v 6 -2 -1
v 5 -2 1
v 5 -2 -1
v 5 4 -1
v 5 4 1
v 6 4 -1
v 6 4 1
v 5 3 1
v 5 3 -1
v 3 3 1
v 3 3 -1
v 3 4 -1
v 3 4 1
v -3 -2 1
v -3 -2 -1
v -4 -2 1
v -4 -2 -1
v -4 4 -1
v -4 4 1
v -3 4 -1
v -3 4 1
v -4 3 1
v -4 3 -1
v -6 3 1
v -6 3 -1
v -6 4 -1
v -6 4 1
v 5 2 1
v 5 2 -1
v 3 2 1
v 3 2 -1
v -4 2 1
v -4 2 -1
v -6 2 1
v -6 2 -1
v 4 -2 1
v 4 -2 -1
v 3 -2 1
v 3 -2 -1
v 4 2 -1
v 4 2 1
v -5 -2 1
v -5 -2 -1
v -6 -2 1
v -6 -2 -1
v -5 2 -1
v -5 2 1
v 4 0 -1
v 4 0 1
v 5 0 -1
v 5 0 1
v -5 0 -1
v -5 0 1
v -4 0 -1
v -4 0 1
v 5 -6 1
v 5 -6 -1
v 3 -6 1
v 3 -6 -1
v 3 -5 -1
v 3 -5 1
v 5 -5 -1
v 5 -5 1
v -3 -6 1
v -3 -6 -1
v -5 -6 1
v -5 -6 -1
v -5 -5 -1
v -5 -5 1
v -3 -5 -1
v -3 -5 1
v 1 -5 1
v 1 -5 -1
v -1 -5 1
v -1 -5 -1
v -1 -1 -1
v -1 -1 1
v 1 -1 -1
v 1 -1 1
v 6 -5 1
v 6 -5 -1
v 3 -3 -1
v 3 -3 1
v 6 -3 -1
v 6 -3 1
v -6 -5 1
v -6 -5 -1
v -6 -3 -1
v -6 -3 1
v -3 -3 -1
v -3 -3 1
v 6 -6 1
v 6 -6 -1
v 1 -6 1
v 1 -6 -1
v -1 -6 1
v -1 -6 -1
v -6 -6 1
v -6 -6 -1

vn -1 0 0
vn 0 0 -1
vn 0.7071068 0.7071068 0
vn 0 0 1
vn 0 -1 0
vn 0.7071068 -0.7071068 0
vn 0 1 0
vn 1 0 0
vn -0.7071068 0.7071068 0
vn -0.7071068 -0.7071068 0

vt 0 0

usemtl color13

f 3/1/1 2/1/1 1/1/1
f 2/1/1 3/1/1 4/1/1
f 2/1/2 5/1/2 1/1/2
f 2/1/3 6/1/3 5/1/3
f 6/1/3 2/1/3 4/1/3
f 4/1/4 3/1/4 6/1/4
f 3/1/5 5/1/5 6/1/5
f 5/1/5 3/1/5 1/1/5
f 9/1/4 8/1/4 7/1/4
f 8/1/6 10/1/6 7/1/6
f 10/1/6 8/1/6 11/1/6
f 12/1/7 7/1/7 10/1/7
f 7/1/7 12/1/7 9/1/7
f 8/1/1 12/1/1 11/1/1
f 12/1/1 8/1/1 9/1/1
f 12/1/2 10/1/2 11/1/2
f 15/1/5 14/1/5 13/1/5
f 14/1/5 15/1/5 16/1/5
f 17/1/4 15/1/4 13/1/4
f 18/1/2 14/1/2 16/1/2
f 17/1/8 14/1/8 18/1/8
f 14/1/8 17/1/8 13/1/8
f 15/1/9 18/1/9 16/1/9
f 18/1/9 15/1/9 17/1/9
f 21/1/8 20/1/8 19/1/8
f 20/1/8 21/1/8 22/1/8
f 23/1/4 22/1/4 21/1/4
f 22/1/10 24/1/10 20/1/10
f 24/1/10 22/1/10 23/1/10
f 24/1/2 19/1/2 20/1/2
f 24/1/7 21/1/7 19/1/7
f 21/1/7 24/1/7 23/1/7
f 27/1/1 26/1/1 25/1/1
f 26/1/1 27/1/1 28/1/1
f 26/1/2 29/1/2 25/1/2
f 26/1/3 30/1/3 29/1/3
f 30/1/3 26/1/3 28/1/3
f 28/1/4 27/1/4 30/1/4
f 27/1/5 29/1/5 30/1/5
f 29/1/5 27/1/5 25/1/5
f 33/1/4 32/1/4 31/1/4
f 32/1/6 34/1/6 31/1/6
f 34/1/6 32/1/6 35/1/6
f 36/1/7 31/1/7 34/1/7
f 31/1/7 36/1/7 33/1/7
f 32/1/1 36/1/1 35/1/1
f 36/1/1 32/1/1 33/1/1
f 36/1/2 34/1/2 35/1/2
f 39/1/5 38/1/5 37/1/5
f 38/1/5 39/1/5 40/1/5
f 41/1/4 39/1/4 37/1/4
f 42/1/2 38/1/2 40/1/2
f 41/1/8 38/1/8 42/1/8
f 38/1/8 41/1/8 37/1/8
f 39/1/9 42/1/9 40/1/9
f 42/1/9 39/1/9 41/1/9
f 45/1/8 44/1/8 43/1/8
f 44/1/8 45/1/8 46/1/8
f 47/1/4 46/1/4 45/1/4
f 46/1/10 48/1/10 44/1/10
f 48/1/10 46/1/10 47/1/10
f 48/1/2 43/1/2 44/1/2
f 48/1/7 45/1/7 43/1/7
f 45/1/7 48/1/7 47/1/7
f 13/1/5 1/1/5 3/1/5
f 1/1/5 13/1/5 14/1/5
f 13/1/1 18/1/1 14/1/1
f 18/1/1 13/1/1 17/1/1
f 18/1/2 1/1/2 14/1/2
f 1/1/2 18/1/2 2/1/2
f 4/1/4 13/1/4 3/1/4
f 13/1/4 4/1/4 17/1/4
f 4/1/8 1/1/8 2/1/8
f 1/1/8 4/1/8 3/1/8
f 18/1/7 4/1/7 2/1/7
f 4/1/7 18/1/7 17/1/7
f 37/1/5 25/1/5 27/1/5
f 25/1/5 37/1/5 38/1/5
f 37/1/1 42/1/1 38/1/1
f 42/1/1 37/1/1 41/1/1
f 42/1/2 25/1/2 38/1/2
f 25/1/2 42/1/2 26/1/2
f 28/1/4 37/1/4 27/1/4
f 37/1/4 28/1/4 41/1/4
f 28/1/8 25/1/8 26/1/8
f 25/1/8 28/1/8 27/1/8
f 42/1/7 28/1/7 26/1/7
f 28/1/7 42/1/7 41/1/7
f 9/1/5 10/1/5 7/1/5
f 10/1/5 9/1/5 12/1/5
f 9/1/1 1/1/1 12/1/1
f 1/1/1 9/1/1 3/1/1
f 1/1/2 10/1/2 12/1/2
f 10/1/2 1/1/2 5/1/2
f 6/1/4 9/1/4 7/1/4
f 9/1/4 6/1/4 3/1/4
f 6/1/8 10/1/8 5/1/8
f 10/1/8 6/1/8 7/1/8
f 1/1/7 6/1/7 5/1/7
f 6/1/7 1/1/7 3/1/7
f 23/1/5 19/1/5 21/1/5
f 19/1/5 23/1/5 24/1/5
f 23/1/1 16/1/1 24/1/1
f 16/1/1 23/1/1 15/1/1
f 16/1/2 19/1/2 24/1/2
f 19/1/2 16/1/2 14/1/2
f 13/1/4 23/1/4 21/1/4
f 23/1/4 13/1/4 15/1/4
f 13/1/8 19/1/8 14/1/8
f 19/1/8 13/1/8 21/1/8
f 16/1/7 13/1/7 14/1/7
f 13/1/7 16/1/7 15/1/7
f 33/1/5 34/1/5 31/1/5
f 34/1/5 33/1/5 36/1/5
f 33/1/1 25/1/1 36/1/1
f 25/1/1 33/1/1 27/1/1
f 25/1/2 34/1/2 36/1/2
f 34/1/2 25/1/2 29/1/2
f 30/1/4 33/1/4 31/1/4
f 33/1/4 30/1/4 27/1/4
f 30/1/8 34/1/8 29/1/8
f 34/1/8 30/1/8 31/1/8
f 25/1/7 30/1/7 29/1/7
f 30/1/7 25/1/7 27/1/7
f 47/1/5 43/1/5 45/1/5
f 43/1/5 47/1/5 48/1/5
f 47/1/1 40/1/1 48/1/1
f 40/1/1 47/1/1 39/1/1
f 40/1/2 43/1/2 48/1/2
f 43/1/2 40/1/2 38/1/2
f 37/1/4 47/1/4 45/1/4
f 47/1/4 37/1/4 39/1/4
f 37/1/8 43/1/8 38/1/8
f 43/1/8 37/1/8 45/1/8
f 40/1/7 37/1/7 38/1/7
f 37/1/7 40/1/7 39/1/7
f 51/1/5 50/1/5 49/1/5
f 50/1/5 51/1/5 52/1/5
f 51/1/1 53/1/1 52/1/1
f 53/1/1 51/1/1 54/1/1
f 53/1/2 50/1/2 52/1/2
f 50/1/2 53/1/2 55/1/2
f 56/1/4 51/1/4 49/1/4
f 51/1/4 56/1/4 54/1/4
f 56/1/8 50/1/8 55/1/8
f 50/1/8 56/1/8 49/1/8
f 53/1/7 56/1/7 55/1/7
f 56/1/7 53/1/7 54/1/7
f 59/1/5 58/1/5 57/1/5
f 58/1/5 59/1/5 60/1/5
f 59/1/1 61/1/1 60/1/1
f 61/1/1 59/1/1 62/1/1
f 61/1/2 58/1/2 60/1/2
f 58/1/2 61/1/2 63/1/2
f 64/1/4 59/1/4 57/1/4
f 59/1/4 64/1/4 62/1/4
f 64/1/8 58/1/8 63/1/8
f 58/1/8 64/1/8 57/1/8
f 61/1/7 64/1/7 63/1/7
f 64/1/7 61/1/7 62/1/7
f 22/1/5 11/1/5 8/1/5
f 11/1/5 22/1/5 20/1/5
f 22/1/1 19/1/1 20/1/1
f 19/1/1 22/1/1 21/1/1
f 19/1/2 11/1/2 20/1/2
f 11/1/2 19/1/2 12/1/2
f 9/1/4 22/1/4 8/1/4
f 22/1/4 9/1/4 21/1/4
f 9/1/8 11/1/8 12/1/8
f 11/1/8 9/1/8 8/1/8
f 19/1/7 9/1/7 12/1/7
f 9/1/7 19/1/7 21/1/7
f 46/1/5 35/1/5 32/1/5
f 35/1/5 46/1/5 44/1/5
f 46/1/1 43/1/1 44/1/1
f 43/1/1 46/1/1 45/1/1
f 43/1/2 35/1/2 44/1/2
f 35/1/2 43/1/2 36/1/2
f 33/1/4 46/1/4 32/1/4
f 46/1/4 33/1/4 45/1/4
f 33/1/8 35/1/8 36/1/8
f 35/1/8 33/1/8 32/1/8
f 43/1/7 33/1/7 36/1/7
f 33/1/7 43/1/7 45/1/7

usemtl color3

f 67/1/8 66/1/8 65/1/8
f 66/1/8 67/1/8 68/1/8
f 69/1/7 67/1/7 65/1/7
f 67/1/7 69/1/7 70/1/7
f 71/1/5 66/1/5 68/1/5
f 66/1/5 71/1/5 72/1/5
f 69/1/2 66/1/2 72/1/2
f 66/1/2 69/1/2 65/1/2
f 71/1/1 69/1/1 72/1/1
f 69/1/1 71/1/1 70/1/1
f 68/1/4 70/1/4 71/1/4
f 70/1/4 68/1/4 67/1/4
f 75/1/5 74/1/5 73/1/5
f 74/1/5 75/1/5 76/1/5
f 79/1/7 78/1/7 77/1/7
f 78/1/7 79/1/7 80/1/7
f 79/1/2 74/1/2 76/1/2
f 74/1/2 79/1/2 77/1/2
f 75/1/1 79/1/1 76/1/1
f 79/1/1 75/1/1 80/1/1
f 73/1/4 80/1/4 75/1/4
f 80/1/4 73/1/4 78/1/4
f 78/1/8 74/1/8 77/1/8
f 74/1/8 78/1/8 73/1/8
f 83/1/1 82/1/1 81/1/1
f 82/1/1 83/1/1 84/1/1
f 82/1/2 85/1/2 81/1/2
f 82/1/3 86/1/3 85/1/3
f 86/1/3 82/1/3 84/1/3
f 84/1/4 83/1/4 86/1/4
f 83/1/5 85/1/5 86/1/5
f 85/1/5 83/1/5 81/1/5
f 70/1/8 72/1/8 69/1/8
f 72/1/8 70/1/8 71/1/8
f 87/1/7 70/1/7 69/1/7
f 70/1/7 87/1/7 88/1/7
f 89/1/5 72/1/5 71/1/5
f 72/1/5 89/1/5 90/1/5
f 87/1/2 72/1/2 90/1/2
f 72/1/2 87/1/2 69/1/2
f 89/1/1 87/1/1 90/1/1
f 87/1/1 89/1/1 88/1/1
f 71/1/4 88/1/4 89/1/4
f 88/1/4 71/1/4 70/1/4
f 91/1/5 76/1/5 75/1/5
f 76/1/5 91/1/5 92/1/5
f 93/1/7 80/1/7 79/1/7
f 80/1/7 93/1/7 94/1/7
f 93/1/2 76/1/2 92/1/2
f 76/1/2 93/1/2 79/1/2
f 91/1/1 93/1/1 92/1/1
f 93/1/1 91/1/1 94/1/1
f 75/1/4 94/1/4 91/1/4
f 94/1/4 75/1/4 80/1/4
f 80/1/8 76/1/8 79/1/8
f 76/1/8 80/1/8 75/1/8
f 95/1/5 81/1/5 83/1/5
f 81/1/5 95/1/5 96/1/5
f 84/1/4 95/1/4 83/1/4
f 82/1/2 81/1/2 96/1/2
f 84/1/8 81/1/8 82/1/8
f 81/1/8 84/1/8 83/1/8
f 95/1/9 82/1/9 96/1/9
f 82/1/9 95/1/9 84/1/9
f 88/1/8 90/1/8 87/1/8
f 90/1/8 88/1/8 89/1/8
f 97/1/7 88/1/7 87/1/7
f 88/1/7 97/1/7 98/1/7
f 99/1/5 90/1/5 89/1/5
f 90/1/5 99/1/5 100/1/5
f 97/1/2 90/1/2 100/1/2
f 90/1/2 97/1/2 87/1/2
f 99/1/1 97/1/1 100/1/1
f 97/1/1 99/1/1 98/1/1
f 89/1/4 98/1/4 99/1/4
f 98/1/4 89/1/4 88/1/4
f 101/1/5 92/1/5 91/1/5
f 92/1/5 101/1/5 102/1/5
f 103/1/7 94/1/7 93/1/7
f 94/1/7 103/1/7 104/1/7
f 103/1/2 92/1/2 102/1/2
f 92/1/2 103/1/2 93/1/2
f 101/1/1 103/1/1 102/1/1
f 103/1/1 101/1/1 104/1/1
f 91/1/4 104/1/4 101/1/4
f 104/1/4 91/1/4 94/1/4
f 94/1/8 105/1/8 93/1/8
f 105/1/8 94/1/8 106/1/8
f 98/1/8 100/1/8 97/1/8
f 100/1/8 98/1/8 99/1/8
f 107/1/7 98/1/7 97/1/7
f 98/1/7 107/1/7 108/1/7
f 109/1/5 100/1/5 99/1/5
f 100/1/5 109/1/5 110/1/5
f 107/1/2 100/1/2 110/1/2
f 100/1/2 107/1/2 97/1/2
f 109/1/1 107/1/1 110/1/1
f 107/1/1 109/1/1 108/1/1
f 99/1/4 108/1/4 109/1/4
f 108/1/4 99/1/4 98/1/4
f 111/1/5 102/1/5 101/1/5
f 102/1/5 111/1/5 112/1/5
f 113/1/7 104/1/7 103/1/7
f 104/1/7 113/1/7 114/1/7
f 113/1/2 102/1/2 112/1/2
f 102/1/2 113/1/2 103/1/2
f 111/1/1 113/1/1 112/1/1
f 113/1/1 111/1/1 114/1/1
f 101/1/4 114/1/4 111/1/4
f 114/1/4 101/1/4 104/1/4
f 104/1/8 115/1/8 103/1/8
f 115/1/8 104/1/8 116/1/8
f 119/1/5 118/1/5 117/1/5
f 118/1/5 119/1/5 120/1/5
f 119/1/1 96/1/1 120/1/1
f 96/1/1 119/1/1 95/1/1
f 96/1/2 118/1/2 120/1/2
f 118/1/2 96/1/2 85/1/2
f 86/1/4 119/1/4 117/1/4
f 119/1/4 86/1/4 95/1/4
f 86/1/8 118/1/8 85/1/8
f 118/1/8 86/1/8 117/1/8
f 96/1/7 86/1/7 85/1/7
f 86/1/7 96/1/7 95/1/7

usemtl color11

f 123/1/5 122/1/5 121/1/5
f 122/1/5 123/1/5 124/1/5
f 123/1/1 125/1/1 124/1/1
f 125/1/1 123/1/1 126/1/1
f 125/1/2 122/1/2 124/1/2
f 122/1/2 125/1/2 127/1/2
f 128/1/4 123/1/4 121/1/4
f 123/1/4 128/1/4 126/1/4
f 128/1/8 122/1/8 127/1/8
f 122/1/8 128/1/8 121/1/8
f 125/1/7 128/1/7 127/1/7
f 128/1/7 125/1/7 126/1/7
f 131/1/5 130/1/5 129/1/5
f 130/1/5 131/1/5 132/1/5
f 131/1/1 133/1/1 132/1/1
f 133/1/1 131/1/1 134/1/1
f 133/1/2 130/1/2 132/1/2
f 130/1/2 133/1/2 125/1/2
f 126/1/4 131/1/4 129/1/4
f 131/1/4 126/1/4 134/1/4
f 126/1/8 130/1/8 125/1/8
f 130/1/8 126/1/8 129/1/8
f 133/1/7 126/1/7 125/1/7
f 126/1/7 133/1/7 134/1/7
f 137/1/5 136/1/5 135/1/5
f 136/1/5 137/1/5 138/1/5
f 137/1/1 139/1/1 138/1/1
f 139/1/1 137/1/1 140/1/1
f 139/1/2 136/1/2 138/1/2
f 136/1/2 139/1/2 141/1/2
f 142/1/4 137/1/4 135/1/4
f 137/1/4 142/1/4 140/1/4
f 142/1/8 136/1/8 141/1/8
f 136/1/8 142/1/8 135/1/8
f 139/1/7 142/1/7 141/1/7
f 142/1/7 139/1/7 140/1/7
f 145/1/5 144/1/5 143/1/5
f 144/1/5 145/1/5 146/1/5
f 145/1/1 147/1/1 146/1/1
f 147/1/1 145/1/1 148/1/1
f 147/1/2 144/1/2 146/1/2
f 144/1/2 147/1/2 139/1/2
f 140/1/4 145/1/4 143/1/4
f 145/1/4 140/1/4 148/1/4
f 140/1/8 144/1/8 139/1/8
f 144/1/8 140/1/8 143/1/8
f 147/1/7 140/1/7 139/1/7
f 140/1/7 147/1/7 148/1/7
f 151/1/5 150/1/5 149/1/5
f 150/1/5 151/1/5 152/1/5
f 151/1/1 132/1/1 152/1/1
f 132/1/1 151/1/1 131/1/1
f 132/1/2 150/1/2 152/1/2
f 150/1/2 132/1/2 130/1/2
f 129/1/4 151/1/4 149/1/4
f 151/1/4 129/1/4 131/1/4
f 129/1/8 150/1/8 130/1/8
f 150/1/8 129/1/8 149/1/8
f 132/1/7 129/1/7 130/1/7
f 129/1/7 132/1/7 131/1/7
f 155/1/5 154/1/5 153/1/5
f 154/1/5 155/1/5 156/1/5
f 155/1/1 146/1/1 156/1/1
f 146/1/1 155/1/1 145/1/1
f 146/1/2 154/1/2 156/1/2
f 154/1/2 146/1/2 144/1/2
f 143/1/4 155/1/4 153/1/4
f 155/1/4 143/1/4 145/1/4
f 143/1/8 154/1/8 144/1/8
f 154/1/8 143/1/8 153/1/8
f 146/1/7 143/1/7 144/1/7
f 143/1/7 146/1/7 145/1/7
f 159/1/5 158/1/5 157/1/5
f 158/1/5 159/1/5 160/1/5
f 159/1/1 152/1/1 160/1/1
f 152/1/1 159/1/1 151/1/1
f 152/1/2 158/1/2 160/1/2
f 158/1/2 152/1/2 161/1/2
f 162/1/4 159/1/4 157/1/4
f 159/1/4 162/1/4 151/1/4
f 162/1/8 158/1/8 161/1/8
f 158/1/8 162/1/8 157/1/8
f 152/1/7 162/1/7 161/1/7
f 162/1/7 152/1/7 151/1/7
f 165/1/5 164/1/5 163/1/5
f 164/1/5 165/1/5 166/1/5
f 165/1/1 156/1/1 166/1/1
f 156/1/1 165/1/1 155/1/1
f 156/1/2 164/1/2 166/1/2
f 164/1/2 156/1/2 167/1/2
f 168/1/4 165/1/4 163/1/4
f 165/1/4 168/1/4 155/1/4
f 168/1/8 164/1/8 167/1/8
f 164/1/8 168/1/8 163/1/8
f 156/1/7 168/1/7 167/1/7
f 168/1/7 156/1/7 155/1/7
f 157/1/5 124/1/5 123/1/5
f 124/1/5 157/1/5 158/1/5
f 157/1/1 169/1/1 158/1/1
f 169/1/1 157/1/1 170/1/1
f 169/1/2 124/1/2 158/1/2
f 124/1/2 169/1/2 171/1/2
f 172/1/4 157/1/4 123/1/4
f 157/1/4 172/1/4 170/1/4
f 172/1/8 124/1/8 171/1/8
f 124/1/8 172/1/8 123/1/8
f 169/1/7 172/1/7 171/1/7
f 172/1/7 169/1/7 170/1/7
f 163/1/5 138/1/5 137/1/5
f 138/1/5 163/1/5 164/1/5
f 163/1/1 173/1/1 164/1/1
f 173/1/1 163/1/1 174/1/1
f 173/1/2 138/1/2 164/1/2
f 138/1/2 173/1/2 175/1/2
f 176/1/4 163/1/4 137/1/4
f 163/1/4 176/1/4 174/1/4
f 176/1/8 138/1/8 175/1/8
f 138/1/8 176/1/8 137/1/8
f 173/1/7 176/1/7 175/1/7
f 176/1/7 173/1/7 174/1/7
f 131/1/5 130/1/5 129/1/5
f 130/1/5 131/1/5 132/1/5
f 131/1/1 133/1/1 132/1/1
f 133/1/1 131/1/1 134/1/1
f 133/1/2 130/1/2 132/1/2
f 130/1/2 133/1/2 125/1/2
f 126/1/4 131/1/4 129/1/4
f 131/1/4 126/1/4 134/1/4
f 126/1/8 130/1/8 125/1/8
f 130/1/8 126/1/8 129/1/8
f 133/1/7 126/1/7 125/1/7
f 126/1/7 133/1/7 134/1/7
f 145/1/5 144/1/5 143/1/5
f 144/1/5 145/1/5 146/1/5
f 145/1/1 147/1/1 146/1/1
f 147/1/1 145/1/1 148/1/1
f 147/1/2 144/1/2 146/1/2
f 144/1/2 147/1/2 139/1/2
f 140/1/4 145/1/4 143/1/4
f 145/1/4 140/1/4 148/1/4
f 140/1/8 144/1/8 139/1/8
f 144/1/8 140/1/8 143/1/8
f 147/1/7 140/1/7 139/1/7
f 140/1/7 147/1/7 148/1/7

usemtl color5

f 170/1/5 171/1/5 172/1/5
f 171/1/5 170/1/5 169/1/5
f 170/1/1 161/1/1 169/1/1
f 161/1/1 170/1/1 162/1/1
f 161/1/2 171/1/2 169/1/2
f 171/1/2 161/1/2 150/1/2
f 149/1/4 170/1/4 172/1/4
f 170/1/4 149/1/4 162/1/4
f 149/1/8 171/1/8 150/1/8
f 171/1/8 149/1/8 172/1/8
f 161/1/7 149/1/7 150/1/7
f 149/1/7 161/1/7 162/1/7
f 174/1/5 175/1/5 176/1/5
f 175/1/5 174/1/5 173/1/5
f 174/1/1 167/1/1 173/1/1
f 167/1/1 174/1/1 168/1/1
f 167/1/2 175/1/2 173/1/2
f 175/1/2 167/1/2 154/1/2
f 153/1/4 174/1/4 176/1/4
f 174/1/4 153/1/4 168/1/4
f 153/1/8 175/1/8 154/1/8
f 175/1/8 153/1/8 176/1/8
f 167/1/7 153/1/7 154/1/7
f 153/1/7 167/1/7 168/1/7
f 179/1/5 178/1/5 177/1/5
f 178/1/5 179/1/5 180/1/5
f 179/1/1 181/1/1 180/1/1
f 181/1/1 179/1/1 182/1/1
f 181/1/2 178/1/2 180/1/2
f 178/1/2 181/1/2 183/1/2
f 184/1/4 179/1/4 177/1/4
f 179/1/4 184/1/4 182/1/4
f 184/1/8 178/1/8 183/1/8
f 178/1/8 184/1/8 177/1/8
f 181/1/7 184/1/7 183/1/7
f 184/1/7 181/1/7 182/1/7
f 187/1/5 186/1/5 185/1/5
f 186/1/5 187/1/5 188/1/5
f 187/1/1 189/1/1 188/1/1
f 189/1/1 187/1/1 190/1/1
f 189/1/2 186/1/2 188/1/2
f 186/1/2 189/1/2 191/1/2
f 192/1/4 187/1/4 185/1/4
f 187/1/4 192/1/4 190/1/4
f 192/1/8 186/1/8 191/1/8
f 186/1/8 192/1/8 185/1/8
f 189/1/7 192/1/7 191/1/7
f 192/1/7 189/1/7 190/1/7

usemtl color12

f 195/1/5 194/1/5 193/1/5
f 194/1/5 195/1/5 196/1/5
f 195/1/1 197/1/1 196/1/1
f 197/1/1 195/1/1 198/1/1
f 197/1/2 194/1/2 196/1/2
f 194/1/2 197/1/2 199/1/2
f 200/1/4 195/1/4 193/1/4
f 195/1/4 200/1/4 198/1/4
f 200/1/8 194/1/8 199/1/8
f 194/1/8 200/1/8 193/1/8
f 197/1/7 200/1/7 199/1/7
f 200/1/7 197/1/7 198/1/7
f 182/1/5 202/1/5 201/1/5
f 202/1/5 182/1/5 181/1/5
f 182/1/1 203/1/1 181/1/1
f 203/1/1 182/1/1 204/1/1
f 203/1/2 202/1/2 181/1/2
f 202/1/2 203/1/2 205/1/2
f 206/1/4 182/1/4 201/1/4
f 182/1/4 206/1/4 204/1/4
f 206/1/8 202/1/8 205/1/8
f 202/1/8 206/1/8 201/1/8
f 203/1/7 206/1/7 205/1/7
f 206/1/7 203/1/7 204/1/7
f 207/1/5 191/1/5 192/1/5
f 191/1/5 207/1/5 208/1/5
f 207/1/1 209/1/1 208/1/1
f 209/1/1 207/1/1 210/1/1
f 209/1/2 191/1/2 208/1/2
f 191/1/2 209/1/2 211/1/2
f 212/1/4 207/1/4 192/1/4
f 207/1/4 212/1/4 210/1/4
f 212/1/8 191/1/8 211/1/8
f 191/1/8 212/1/8 192/1/8
f 209/1/7 212/1/7 211/1/7
f 212/1/7 209/1/7 210/1/7

usemtl color4

f 177/1/5 214/1/5 213/1/5
f 214/1/5 177/1/5 178/1/5
f 177/1/1 183/1/1 178/1/1
f 183/1/1 177/1/1 184/1/1
f 183/1/2 214/1/2 178/1/2
f 214/1/2 183/1/2 202/1/2
f 201/1/4 177/1/4 213/1/4
f 177/1/4 201/1/4 184/1/4
f 201/1/8 214/1/8 202/1/8
f 214/1/8 201/1/8 213/1/8
f 183/1/7 201/1/7 202/1/7
f 201/1/7 183/1/7 184/1/7
f 217/1/5 216/1/5 215/1/5
f 216/1/5 217/1/5 218/1/5
f 217/1/1 196/1/1 218/1/1
f 196/1/1 217/1/1 195/1/1
f 196/1/2 216/1/2 218/1/2
f 216/1/2 196/1/2 194/1/2
f 193/1/4 217/1/4 215/1/4
f 217/1/4 193/1/4 195/1/4
f 193/1/8 216/1/8 194/1/8
f 216/1/8 193/1/8 215/1/8
f 196/1/7 193/1/7 194/1/7
f 193/1/7 196/1/7 195/1/7
f 219/1/5 188/1/5 187/1/5
f 188/1/5 219/1/5 220/1/5
f 219/1/1 208/1/1 220/1/1
f 208/1/1 219/1/1 207/1/1
f 208/1/2 188/1/2 220/1/2
f 188/1/2 208/1/2 189/1/2
f 190/1/4 219/1/4 187/1/4
f 219/1/4 190/1/4 207/1/4
f 190/1/8 188/1/8 189/1/8
f 188/1/8 190/1/8 187/1/8
f 208/1/7 190/1/7 189/1/7
f 190/1/7 208/1/7 207/1/7

