# Created by Kenney (www.kenney.nl)

mtllib PlayerShip.mtl

v 4 0 -1
v 4 1 -1
v 4 0 1
v 4 1 1
v 5 0 -1
v 5 0 1
v 5 -4 1
v 4 -5 1
v 4 -4 1
v 5 -4 -1
v 4 -5 -1
v 4 -4 -1
v 3 4 -1
v 3 5 -1
v 3 4 1
v 3 5 1
v 4 4 -1
v 4 4 1
v 2 7 -1
v 2 8 -1
v 2 7 1
v 2 8 1
v 3 7 -1
v 3 7 1
v 1 8 -1
v 1 9 -1
v 1 8 1
v 1 9 1
v -1 8 1
v -1 8 -1
v -2 8 1
v -2 8 -1
v -1 9 1
v -1 9 -1
v -2 7 1
v -2 7 -1
v -3 7 1
v -3 7 -1
v -3 4 1
v -3 4 -1
v -4 4 1
v -4 4 -1
v -3 5 1
v -3 5 -1
v -4 0 1
v -4 0 -1
v -5 0 1
v -5 0 -1
v -4 1 1
v -4 1 -1
v -4 -4 -1
v -4 -5 -1
v -4 -4 1
v -4 -5 1
v -5 -4 1
v -5 -4 -1
v 1 7 1
v 1 7 -1
v -1 7 1
v -1 7 -1
v 2 4 1
v 2 4 -1
v -2 4 1
v -2 4 -1
v 3 0 1
v 3 0 -1
v -3 0 1
v -3 0 -1
v 3 -6 1
v 3 -6 -1
v 1 -6 1
v 1 -6 -1
v 1 -5 -1
v 1 -5 1
v 3 -5 -1
v 3 -5 1
v -1 -6 1
v -1 -6 -1
v -3 -6 1
v -3 -6 -1
v -3 -5 -1
v -3 -5 1
v -1 -5 -1
v -1 -5 1
v 1 7 0.5
v 1 7 -0.5
v -1 7 0.5
v -1 7 -0.5
v -1 8 -0.5
v -1 8 0.5
v 1 8 -0.5
v 1 8 0.5
v 2 4 0.5
v 2 4 -0.5
v 1 4 0.5
v 1 4 -0.5
v 2 7 -0.5
v 2 7 0.5
v -1 4 0.5
v -1 4 -0.5
v -2 4 0.5
v -2 4 -0.5
v -2 7 -0.5
v -2 7 0.5
v 3 0 0.5
v 3 0 -0.5
v 2 0 0.5
v 2 0 -0.5
v 3 4 -0.5
v 3 4 0.5
v -2 0 0.5
v -2 0 -0.5
v -3 0 0.5
v -3 0 -0.5
v -3 4 -0.5
v -3 4 0.5
v 4 -4 0.5
v 4 -4 -0.5
v 3 -4 0.5
v 3 -4 -0.5
v 4 0 -0.5
v 4 0 0.5
v -3 -4 0.5
v -3 -4 -0.5
v -4 -4 0.5
v -4 -4 -0.5
v -4 0 -0.5
v -4 0 0.5
v -3 -3 -0.5
v -3 -3 0.5
v 3 -3 -0.5
v 3 -3 0.5
v 1 4 1.5
v 1 4 -1.5
v -1 4 1.5
v -1 4 -1.5
v -1 7 -1.5
v -1 7 1.5
v 1 7 -1.5
v 1 7 1.5
v 3 -3 1.5
v 3 -3 -1.5
v 2 -3 1.5
v 2 -3 -1.5
v 2 0 -1.5
v 2 0 1.5
v 3 0 -1.5
v 3 0 1.5
v -2 -3 1.5
v -2 -3 -1.5
v -3 -3 1.5
v -3 -3 -1.5
v -3 0 -1.5
v -3 0 1.5
v -2 0 -1.5
v -2 0 1.5
v -2 -2 -1.5
v -2 -2 1.5
v 2 -2 -1.5
v 2 -2 1.5
v 2 2 2
v 2 2 -2
v 1 2 2
v 1 2 -2
v 1 4 -2
v 1 4 2
v 2 4 -2
v 2 4 2
v 1 3 2
v 1 3 -2
v -2 3 2
v -2 3 -2
v -2 4 -2
v -2 4 2
v -1 2 2
v -1 2 -2
v -2 2 2
v -2 2 -2
v -1 3 -2
v -1 3 2
v 2 -2 2
v 2 -2 -2
v 1 -2 2
v 1 -2 -2
v 1 0 -2
v 1 0 2
v 2 0 -2
v 2 0 2
v -1 -2 2
v -1 -2 -2
v -2 -2 2
v -2 -2 -2
v -2 0 -2
v -2 0 2
v -1 0 -2
v -1 0 2
v -1 -1 -2
v -1 -1 2
v 1 -1 -2
v 1 -1 2
v 2 -7 0.5
v 2 -7 -0.5
v 1 -7 0.5
v 1 -7 -0.5
v 1 -6 -0.5
v 1 -6 0.5
v 2 -6 -0.5
v 2 -6 0.5
v -1 -7 0.5
v -1 -7 -0.5
v -2 -7 0.5
v -2 -7 -0.5
v -2 -6 -0.5
v -2 -6 0.5
v -1 -6 -0.5
v -1 -6 0.5
v 3 -7 0.5
v 3 -7 -0.5
v 3 -6 -0.5
v 3 -6 0.5
v -3 -7 0.5
v -3 -7 -0.5
v -3 -6 -0.5
v -3 -6 0.5

vn -1 0 0
vn 0 0 -1
vn 0.7071068 0.7071068 0
vn 0 0 1
vn 0 -1 0
vn 0.7071068 -0.7071068 0
vn 0 1 0
vn 1 0 0
vn -0.7071068 0.7071068 0
vn -0.7071068 -0.7071068 0

vt 0 0

usemtl color14

f 3/1/1 2/1/1 1/1/1
f 2/1/1 3/1/1 4/1/1
f 2/1/2 5/1/2 1/1/2
f 2/1/3 6/1/3 5/1/3
f 6/1/3 2/1/3 4/1/3
f 4/1/4 3/1/4 6/1/4
f 3/1/5 5/1/5 6/1/5
f 5/1/5 3/1/5 1/1/5
f 9/1/4 8/1/4 7/1/4
f 8/1/6 10/1/6 7/1/6
f 10/1/6 8/1/6 11/1/6
f 12/1/7 7/1/7 10/1/7
f 7/1/7 12/1/7 9/1/7
f 8/1/1 12/1/1 11/1/1
f 12/1/1 8/1/1 9/1/1
f 12/1/2 10/1/2 11/1/2
f 15/1/1 14/1/1 13/1/1
f 14/1/1 15/1/1 16/1/1
f 14/1/2 17/1/2 13/1/2
f 14/1/3 18/1/3 17/1/3
f 18/1/3 14/1/3 16/1/3
f 16/1/4 15/1/4 18/1/4
f 15/1/5 17/1/5 18/1/5
f 17/1/5 15/1/5 13/1/5
f 21/1/1 20/1/1 19/1/1
f 20/1/1 21/1/1 22/1/1
f 20/1/2 23/1/2 19/1/2
f 20/1/3 24/1/3 23/1/3
f 24/1/3 20/1/3 22/1/3
f 22/1/4 21/1/4 24/1/4
f 21/1/5 23/1/5 24/1/5
f 23/1/5 21/1/5 19/1/5
f 27/1/1 26/1/1 25/1/1
f 26/1/1 27/1/1 28/1/1
f 26/1/2 20/1/2 25/1/2
f 26/1/3 22/1/3 20/1/3
f 22/1/3 26/1/3 28/1/3
f 28/1/4 27/1/4 22/1/4
f 27/1/5 20/1/5 22/1/5
f 20/1/5 27/1/5 25/1/5
f 31/1/5 30/1/5 29/1/5
f 30/1/5 31/1/5 32/1/5
f 33/1/4 31/1/4 29/1/4
f 34/1/2 30/1/2 32/1/2
f 33/1/8 30/1/8 34/1/8
f 30/1/8 33/1/8 29/1/8
f 31/1/9 34/1/9 32/1/9
f 34/1/9 31/1/9 33/1/9
f 37/1/5 36/1/5 35/1/5
f 36/1/5 37/1/5 38/1/5
f 31/1/4 37/1/4 35/1/4
f 32/1/2 36/1/2 38/1/2
f 31/1/8 36/1/8 32/1/8
f 36/1/8 31/1/8 35/1/8
f 37/1/9 32/1/9 38/1/9
f 32/1/9 37/1/9 31/1/9
f 41/1/5 40/1/5 39/1/5
f 40/1/5 41/1/5 42/1/5
f 43/1/4 41/1/4 39/1/4
f 44/1/2 40/1/2 42/1/2
f 43/1/8 40/1/8 44/1/8
f 40/1/8 43/1/8 39/1/8
f 41/1/9 44/1/9 42/1/9
f 44/1/9 41/1/9 43/1/9
f 47/1/5 46/1/5 45/1/5
f 46/1/5 47/1/5 48/1/5
f 49/1/4 47/1/4 45/1/4
f 50/1/2 46/1/2 48/1/2
f 49/1/8 46/1/8 50/1/8
f 46/1/8 49/1/8 45/1/8
f 47/1/9 50/1/9 48/1/9
f 50/1/9 47/1/9 49/1/9
f 53/1/8 52/1/8 51/1/8
f 52/1/8 53/1/8 54/1/8
f 55/1/4 54/1/4 53/1/4
f 54/1/10 56/1/10 52/1/10
f 56/1/10 54/1/10 55/1/10
f 56/1/2 51/1/2 52/1/2
f 56/1/7 53/1/7 51/1/7
f 53/1/7 56/1/7 55/1/7
f 29/1/5 25/1/5 27/1/5
f 25/1/5 29/1/5 30/1/5
f 29/1/1 34/1/1 30/1/1
f 34/1/1 29/1/1 33/1/1
f 34/1/2 25/1/2 30/1/2
f 25/1/2 34/1/2 26/1/2
f 28/1/4 29/1/4 27/1/4
f 29/1/4 28/1/4 33/1/4
f 28/1/8 25/1/8 26/1/8
f 25/1/8 28/1/8 27/1/8
f 34/1/7 28/1/7 26/1/7
f 28/1/7 34/1/7 33/1/7
f 57/1/5 19/1/5 21/1/5
f 19/1/5 57/1/5 58/1/5
f 57/1/1 25/1/1 58/1/1
f 25/1/1 57/1/1 27/1/1
f 25/1/2 19/1/2 58/1/2
f 19/1/2 25/1/2 20/1/2
f 22/1/4 57/1/4 21/1/4
f 57/1/4 22/1/4 27/1/4
f 22/1/8 19/1/8 20/1/8
f 19/1/8 22/1/8 21/1/8
f 25/1/7 22/1/7 20/1/7
f 22/1/7 25/1/7 27/1/7
f 35/1/5 60/1/5 59/1/5
f 60/1/5 35/1/5 36/1/5
f 35/1/1 32/1/1 36/1/1
f 32/1/1 35/1/1 31/1/1
f 32/1/2 60/1/2 36/1/2
f 60/1/2 32/1/2 30/1/2
f 29/1/4 35/1/4 59/1/4
f 35/1/4 29/1/4 31/1/4
f 29/1/8 60/1/8 30/1/8
f 60/1/8 29/1/8 59/1/8
f 32/1/7 29/1/7 30/1/7
f 29/1/7 32/1/7 31/1/7
f 61/1/5 13/1/5 15/1/5
f 13/1/5 61/1/5 62/1/5
f 61/1/1 19/1/1 62/1/1
f 19/1/1 61/1/1 21/1/1
f 19/1/2 13/1/2 62/1/2
f 13/1/2 19/1/2 23/1/2
f 24/1/4 61/1/4 15/1/4
f 61/1/4 24/1/4 21/1/4
f 24/1/8 13/1/8 23/1/8
f 13/1/8 24/1/8 15/1/8
f 19/1/7 24/1/7 23/1/7
f 24/1/7 19/1/7 21/1/7
f 39/1/5 64/1/5 63/1/5
f 64/1/5 39/1/5 40/1/5
f 39/1/1 38/1/1 40/1/1
f 38/1/1 39/1/1 37/1/1
f 38/1/2 64/1/2 40/1/2
f 64/1/2 38/1/2 36/1/2
f 35/1/4 39/1/4 63/1/4
f 39/1/4 35/1/4 37/1/4
f 35/1/8 64/1/8 36/1/8
f 64/1/8 35/1/8 63/1/8
f 38/1/7 35/1/7 36/1/7
f 35/1/7 38/1/7 37/1/7
f 65/1/5 1/1/5 3/1/5
f 1/1/5 65/1/5 66/1/5
f 65/1/1 13/1/1 66/1/1
f 13/1/1 65/1/1 15/1/1
f 13/1/2 1/1/2 66/1/2
f 1/1/2 13/1/2 17/1/2
f 18/1/4 65/1/4 3/1/4
f 65/1/4 18/1/4 15/1/4
f 18/1/8 1/1/8 17/1/8
f 1/1/8 18/1/8 3/1/8
f 13/1/7 18/1/7 17/1/7
f 18/1/7 13/1/7 15/1/7
f 45/1/5 68/1/5 67/1/5
f 68/1/5 45/1/5 46/1/5
f 45/1/1 42/1/1 46/1/1
f 42/1/1 45/1/1 41/1/1
f 42/1/2 68/1/2 46/1/2
f 68/1/2 42/1/2 40/1/2
f 39/1/4 45/1/4 67/1/4
f 45/1/4 39/1/4 41/1/4
f 39/1/8 68/1/8 40/1/8
f 68/1/8 39/1/8 67/1/8
f 42/1/7 39/1/7 40/1/7
f 39/1/7 42/1/7 41/1/7
f 9/1/5 10/1/5 7/1/5
f 10/1/5 9/1/5 12/1/5
f 9/1/1 1/1/1 12/1/1
f 1/1/1 9/1/1 3/1/1
f 1/1/2 10/1/2 12/1/2
f 10/1/2 1/1/2 5/1/2
f 6/1/4 9/1/4 7/1/4
f 9/1/4 6/1/4 3/1/4
f 6/1/8 10/1/8 5/1/8
f 10/1/8 6/1/8 7/1/8
f 1/1/7 6/1/7 5/1/7
f 6/1/7 1/1/7 3/1/7
f 55/1/5 51/1/5 53/1/5
f 51/1/5 55/1/5 56/1/5
f 55/1/1 48/1/1 56/1/1
f 48/1/1 55/1/1 47/1/1
f 48/1/2 51/1/2 56/1/2
f 51/1/2 48/1/2 46/1/2
f 45/1/4 55/1/4 53/1/4
f 55/1/4 45/1/4 47/1/4
f 45/1/8 51/1/8 46/1/8
f 51/1/8 45/1/8 53/1/8
f 48/1/7 45/1/7 46/1/7
f 45/1/7 48/1/7 47/1/7
f 54/1/5 11/1/5 8/1/5
f 11/1/5 54/1/5 52/1/5
f 54/1/1 51/1/1 52/1/1
f 51/1/1 54/1/1 53/1/1
f 51/1/2 11/1/2 52/1/2
f 11/1/2 51/1/2 12/1/2
f 9/1/4 54/1/4 8/1/4
f 54/1/4 9/1/4 53/1/4
f 9/1/8 11/1/8 12/1/8
f 11/1/8 9/1/8 8/1/8
f 51/1/7 9/1/7 12/1/7
f 9/1/7 51/1/7 53/1/7
f 71/1/5 70/1/5 69/1/5
f 70/1/5 71/1/5 72/1/5
f 71/1/1 73/1/1 72/1/1
f 73/1/1 71/1/1 74/1/1
f 73/1/2 70/1/2 72/1/2
f 70/1/2 73/1/2 75/1/2
f 76/1/4 71/1/4 69/1/4
f 71/1/4 76/1/4 74/1/4
f 76/1/8 70/1/8 75/1/8
f 70/1/8 76/1/8 69/1/8
f 73/1/7 76/1/7 75/1/7
f 76/1/7 73/1/7 74/1/7
f 79/1/5 78/1/5 77/1/5
f 78/1/5 79/1/5 80/1/5
f 79/1/1 81/1/1 80/1/1
f 81/1/1 79/1/1 82/1/1
f 81/1/2 78/1/2 80/1/2
f 78/1/2 81/1/2 83/1/2
f 84/1/4 79/1/4 77/1/4
f 79/1/4 84/1/4 82/1/4
f 84/1/8 78/1/8 83/1/8
f 78/1/8 84/1/8 77/1/8
f 81/1/7 84/1/7 83/1/7
f 84/1/7 81/1/7 82/1/7

usemtl color13

f 87/1/5 86/1/5 85/1/5
f 86/1/5 87/1/5 88/1/5
f 87/1/1 89/1/1 88/1/1
f 89/1/1 87/1/1 90/1/1
f 89/1/2 86/1/2 88/1/2
f 86/1/2 89/1/2 91/1/2
f 92/1/4 87/1/4 85/1/4
f 87/1/4 92/1/4 90/1/4
f 92/1/8 86/1/8 91/1/8
f 86/1/8 92/1/8 85/1/8
f 89/1/7 92/1/7 91/1/7
f 92/1/7 89/1/7 90/1/7
f 95/1/5 94/1/5 93/1/5
f 94/1/5 95/1/5 96/1/5
f 95/1/1 86/1/1 96/1/1
f 86/1/1 95/1/1 85/1/1
f 86/1/2 94/1/2 96/1/2
f 94/1/2 86/1/2 97/1/2
f 98/1/4 95/1/4 93/1/4
f 95/1/4 98/1/4 85/1/4
f 98/1/8 94/1/8 97/1/8
f 94/1/8 98/1/8 93/1/8
f 86/1/7 98/1/7 97/1/7
f 98/1/7 86/1/7 85/1/7
f 101/1/5 100/1/5 99/1/5
f 100/1/5 101/1/5 102/1/5
f 101/1/1 103/1/1 102/1/1
f 103/1/1 101/1/1 104/1/1
f 103/1/2 100/1/2 102/1/2
f 100/1/2 103/1/2 88/1/2
f 87/1/4 101/1/4 99/1/4
f 101/1/4 87/1/4 104/1/4
f 87/1/8 100/1/8 88/1/8
f 100/1/8 87/1/8 99/1/8
f 103/1/7 87/1/7 88/1/7
f 87/1/7 103/1/7 104/1/7
f 107/1/5 106/1/5 105/1/5
f 106/1/5 107/1/5 108/1/5
f 107/1/1 94/1/1 108/1/1
f 94/1/1 107/1/1 93/1/1
f 94/1/2 106/1/2 108/1/2
f 106/1/2 94/1/2 109/1/2
f 110/1/4 107/1/4 105/1/4
f 107/1/4 110/1/4 93/1/4
f 110/1/8 106/1/8 109/1/8
f 106/1/8 110/1/8 105/1/8
f 94/1/7 110/1/7 109/1/7
f 110/1/7 94/1/7 93/1/7
f 113/1/5 112/1/5 111/1/5
f 112/1/5 113/1/5 114/1/5
f 113/1/1 115/1/1 114/1/1
f 115/1/1 113/1/1 116/1/1
f 115/1/2 112/1/2 114/1/2
f 112/1/2 115/1/2 102/1/2
f 101/1/4 113/1/4 111/1/4
f 113/1/4 101/1/4 116/1/4
f 101/1/8 112/1/8 102/1/8
f 112/1/8 101/1/8 111/1/8
f 115/1/7 101/1/7 102/1/7
f 101/1/7 115/1/7 116/1/7
f 119/1/5 118/1/5 117/1/5
f 118/1/5 119/1/5 120/1/5
f 119/1/1 106/1/1 120/1/1
f 106/1/1 119/1/1 105/1/1
f 106/1/2 118/1/2 120/1/2
f 118/1/2 106/1/2 121/1/2
f 122/1/4 119/1/4 117/1/4
f 119/1/4 122/1/4 105/1/4
f 122/1/8 118/1/8 121/1/8
f 118/1/8 122/1/8 117/1/8
f 106/1/7 122/1/7 121/1/7
f 122/1/7 106/1/7 105/1/7
f 125/1/5 124/1/5 123/1/5
f 124/1/5 125/1/5 126/1/5
f 125/1/1 127/1/1 126/1/1
f 127/1/1 125/1/1 128/1/1
f 127/1/2 124/1/2 126/1/2
f 124/1/2 127/1/2 114/1/2
f 113/1/4 125/1/4 123/1/4
f 125/1/4 113/1/4 128/1/4
f 113/1/8 124/1/8 114/1/8
f 124/1/8 113/1/8 123/1/8
f 127/1/7 113/1/7 114/1/7
f 113/1/7 127/1/7 128/1/7
f 123/1/5 120/1/5 119/1/5
f 120/1/5 123/1/5 124/1/5
f 123/1/1 129/1/1 124/1/1
f 129/1/1 123/1/1 130/1/1
f 129/1/2 120/1/2 124/1/2
f 120/1/2 129/1/2 131/1/2
f 132/1/4 123/1/4 119/1/4
f 123/1/4 132/1/4 130/1/4
f 132/1/8 120/1/8 131/1/8
f 120/1/8 132/1/8 119/1/8
f 129/1/7 132/1/7 131/1/7
f 132/1/7 129/1/7 130/1/7

usemtl color12

f 135/1/5 134/1/5 133/1/5
f 134/1/5 135/1/5 136/1/5
f 135/1/1 137/1/1 136/1/1
f 137/1/1 135/1/1 138/1/1
f 137/1/2 134/1/2 136/1/2
f 134/1/2 137/1/2 139/1/2
f 140/1/4 135/1/4 133/1/4
f 135/1/4 140/1/4 138/1/4
f 140/1/8 134/1/8 139/1/8
f 134/1/8 140/1/8 133/1/8
f 137/1/7 140/1/7 139/1/7
f 140/1/7 137/1/7 138/1/7
f 143/1/5 142/1/5 141/1/5
f 142/1/5 143/1/5 144/1/5
f 143/1/1 145/1/1 144/1/1
f 145/1/1 143/1/1 146/1/1
f 145/1/2 142/1/2 144/1/2
f 142/1/2 145/1/2 147/1/2
f 148/1/4 143/1/4 141/1/4
f 143/1/4 148/1/4 146/1/4
f 148/1/8 142/1/8 147/1/8
f 142/1/8 148/1/8 141/1/8
f 145/1/7 148/1/7 147/1/7
f 148/1/7 145/1/7 146/1/7
f 151/1/5 150/1/5 149/1/5
f 150/1/5 151/1/5 152/1/5
f 151/1/1 153/1/1 152/1/1
f 153/1/1 151/1/1 154/1/1
f 153/1/2 150/1/2 152/1/2
f 150/1/2 153/1/2 155/1/2
f 156/1/4 151/1/4 149/1/4
f 151/1/4 156/1/4 154/1/4
f 156/1/8 150/1/8 155/1/8
f 150/1/8 156/1/8 149/1/8
f 153/1/7 156/1/7 155/1/7
f 156/1/7 153/1/7 154/1/7
f 149/1/5 144/1/5 143/1/5
f 144/1/5 149/1/5 150/1/5
f 149/1/1 157/1/1 150/1/1
f 157/1/1 149/1/1 158/1/1
f 157/1/2 144/1/2 150/1/2
f 144/1/2 157/1/2 159/1/2
f 160/1/4 149/1/4 143/1/4
f 149/1/4 160/1/4 158/1/4
f 160/1/8 144/1/8 159/1/8
f 144/1/8 160/1/8 143/1/8
f 157/1/7 160/1/7 159/1/7
f 160/1/7 157/1/7 158/1/7

usemtl color6

f 163/1/5 162/1/5 161/1/5
f 162/1/5 163/1/5 164/1/5
f 163/1/1 165/1/1 164/1/1
f 165/1/1 163/1/1 166/1/1
f 165/1/2 162/1/2 164/1/2
f 162/1/2 165/1/2 167/1/2
f 168/1/4 163/1/4 161/1/4
f 163/1/4 168/1/4 166/1/4
f 168/1/8 162/1/8 167/1/8
f 162/1/8 168/1/8 161/1/8
f 165/1/7 168/1/7 167/1/7
f 168/1/7 165/1/7 166/1/7
f 171/1/5 170/1/5 169/1/5
f 170/1/5 171/1/5 172/1/5
f 171/1/1 173/1/1 172/1/1
f 173/1/1 171/1/1 174/1/1
f 173/1/2 170/1/2 172/1/2
f 170/1/2 173/1/2 165/1/2
f 166/1/4 171/1/4 169/1/4
f 171/1/4 166/1/4 174/1/4
f 166/1/8 170/1/8 165/1/8
f 170/1/8 166/1/8 169/1/8
f 173/1/7 166/1/7 165/1/7
f 166/1/7 173/1/7 174/1/7
f 177/1/5 176/1/5 175/1/5
f 176/1/5 177/1/5 178/1/5
f 177/1/1 172/1/1 178/1/1
f 172/1/1 177/1/1 171/1/1
f 172/1/2 176/1/2 178/1/2
f 176/1/2 172/1/2 179/1/2
f 180/1/4 177/1/4 175/1/4
f 177/1/4 180/1/4 171/1/4
f 180/1/8 176/1/8 179/1/8
f 176/1/8 180/1/8 175/1/8
f 172/1/7 180/1/7 179/1/7
f 180/1/7 172/1/7 171/1/7
f 183/1/5 182/1/5 181/1/5
f 182/1/5 183/1/5 184/1/5
f 183/1/1 185/1/1 184/1/1
f 185/1/1 183/1/1 186/1/1
f 185/1/2 182/1/2 184/1/2
f 182/1/2 185/1/2 187/1/2
f 188/1/4 183/1/4 181/1/4
f 183/1/4 188/1/4 186/1/4
f 188/1/8 182/1/8 187/1/8
f 182/1/8 188/1/8 181/1/8
f 185/1/7 188/1/7 187/1/7
f 188/1/7 185/1/7 186/1/7
f 191/1/5 190/1/5 189/1/5
f 190/1/5 191/1/5 192/1/5
f 191/1/1 193/1/1 192/1/1
f 193/1/1 191/1/1 194/1/1
f 193/1/2 190/1/2 192/1/2
f 190/1/2 193/1/2 195/1/2
f 196/1/4 191/1/4 189/1/4
f 191/1/4 196/1/4 194/1/4
f 196/1/8 190/1/8 195/1/8
f 190/1/8 196/1/8 189/1/8
f 193/1/7 196/1/7 195/1/7
f 196/1/7 193/1/7 194/1/7
f 189/1/5 184/1/5 183/1/5
f 184/1/5 189/1/5 190/1/5
f 189/1/1 197/1/1 190/1/1
f 197/1/1 189/1/1 198/1/1
f 197/1/2 184/1/2 190/1/2
f 184/1/2 197/1/2 199/1/2
f 200/1/4 189/1/4 183/1/4
f 189/1/4 200/1/4 198/1/4
f 200/1/8 184/1/8 199/1/8
f 184/1/8 200/1/8 183/1/8
f 197/1/7 200/1/7 199/1/7
f 200/1/7 197/1/7 198/1/7
f 171/1/5 170/1/5 169/1/5
f 170/1/5 171/1/5 172/1/5
f 171/1/1 173/1/1 172/1/1
f 173/1/1 171/1/1 174/1/1
f 173/1/2 170/1/2 172/1/2
f 170/1/2 173/1/2 165/1/2
f 166/1/4 171/1/4 169/1/4
f 171/1/4 166/1/4 174/1/4
f 166/1/8 170/1/8 165/1/8
f 170/1/8 166/1/8 169/1/8
f 173/1/7 166/1/7 165/1/7
f 166/1/7 173/1/7 174/1/7

usemtl color7

f 175/1/5 164/1/5 163/1/5
f 164/1/5 175/1/5 176/1/5
f 175/1/1 179/1/1 176/1/1
f 179/1/1 175/1/1 180/1/1
f 179/1/2 164/1/2 176/1/2
f 164/1/2 179/1/2 170/1/2
f 169/1/4 175/1/4 163/1/4
f 175/1/4 169/1/4 180/1/4
f 169/1/8 164/1/8 170/1/8
f 164/1/8 169/1/8 163/1/8
f 179/1/7 169/1/7 170/1/7
f 169/1/7 179/1/7 180/1/7
f 186/1/5 187/1/5 188/1/5
f 187/1/5 186/1/5 185/1/5
f 186/1/1 164/1/1 185/1/1
f 164/1/1 186/1/1 163/1/1
f 164/1/2 187/1/2 185/1/2
f 187/1/2 164/1/2 162/1/2
f 161/1/4 186/1/4 188/1/4
f 186/1/4 161/1/4 163/1/4
f 161/1/8 187/1/8 162/1/8
f 187/1/8 161/1/8 188/1/8
f 164/1/7 161/1/7 162/1/7
f 161/1/7 164/1/7 163/1/7
f 194/1/5 195/1/5 196/1/5
f 195/1/5 194/1/5 193/1/5
f 194/1/1 178/1/1 193/1/1
f 178/1/1 194/1/1 177/1/1
f 178/1/2 195/1/2 193/1/2
f 195/1/2 178/1/2 176/1/2
f 175/1/4 194/1/4 196/1/4
f 194/1/4 175/1/4 177/1/4
f 175/1/8 195/1/8 176/1/8
f 195/1/8 175/1/8 196/1/8
f 178/1/7 175/1/7 176/1/7
f 175/1/7 178/1/7 177/1/7
f 198/1/5 199/1/5 200/1/5
f 199/1/5 198/1/5 197/1/5
f 198/1/1 195/1/1 197/1/1
f 195/1/1 198/1/1 196/1/1
f 195/1/2 199/1/2 197/1/2
f 199/1/2 195/1/2 185/1/2
f 186/1/4 198/1/4 200/1/4
f 198/1/4 186/1/4 196/1/4
f 186/1/8 199/1/8 185/1/8
f 199/1/8 186/1/8 200/1/8
f 195/1/7 186/1/7 185/1/7
f 186/1/7 195/1/7 196/1/7

usemtl color5

f 196/1/5 185/1/5 186/1/5
f 185/1/5 196/1/5 195/1/5
f 196/1/1 176/1/1 195/1/1
f 176/1/1 196/1/1 175/1/1
f 176/1/2 185/1/2 195/1/2
f 185/1/2 176/1/2 164/1/2
f 163/1/4 196/1/4 186/1/4
f 196/1/4 163/1/4 175/1/4
f 163/1/8 185/1/8 164/1/8
f 185/1/8 163/1/8 186/1/8
f 176/1/7 163/1/7 164/1/7
f 163/1/7 176/1/7 175/1/7
f 203/1/5 202/1/5 201/1/5
f 202/1/5 203/1/5 204/1/5
f 203/1/1 205/1/1 204/1/1
f 205/1/1 203/1/1 206/1/1
f 205/1/2 202/1/2 204/1/2
f 202/1/2 205/1/2 207/1/2
f 208/1/4 203/1/4 201/1/4
f 203/1/4 208/1/4 206/1/4
f 208/1/8 202/1/8 207/1/8
f 202/1/8 208/1/8 201/1/8
f 205/1/7 208/1/7 207/1/7
f 208/1/7 205/1/7 206/1/7
f 211/1/5 210/1/5 209/1/5
f 210/1/5 211/1/5 212/1/5
f 211/1/1 213/1/1 212/1/1
f 213/1/1 211/1/1 214/1/1
f 213/1/2 210/1/2 212/1/2
f 210/1/2 213/1/2 215/1/2
f 216/1/4 211/1/4 209/1/4
f 211/1/4 216/1/4 214/1/4
f 216/1/8 210/1/8 215/1/8
f 210/1/8 216/1/8 209/1/8
f 213/1/7 216/1/7 215/1/7
f 216/1/7 213/1/7 214/1/7

usemtl color4

f 201/1/5 218/1/5 217/1/5
f 218/1/5 201/1/5 202/1/5
f 201/1/1 207/1/1 202/1/1
f 207/1/1 201/1/1 208/1/1
f 207/1/2 218/1/2 202/1/2
f 218/1/2 207/1/2 219/1/2
f 220/1/4 201/1/4 217/1/4
f 201/1/4 220/1/4 208/1/4
f 220/1/8 218/1/8 219/1/8
f 218/1/8 220/1/8 217/1/8
f 207/1/7 220/1/7 219/1/7
f 220/1/7 207/1/7 208/1/7
f 221/1/5 212/1/5 211/1/5
f 212/1/5 221/1/5 222/1/5
f 221/1/1 223/1/1 222/1/1
f 223/1/1 221/1/1 224/1/1
f 223/1/2 212/1/2 222/1/2
f 212/1/2 223/1/2 213/1/2
f 214/1/4 221/1/4 211/1/4
f 221/1/4 214/1/4 224/1/4
f 214/1/8 212/1/8 213/1/8
f 212/1/8 214/1/8 211/1/8
f 223/1/7 214/1/7 213/1/7
f 214/1/7 223/1/7 224/1/7

